<?xml version="1.0" encoding="utf-8"?>
<!-- Generator: Adobe Illustrator 28.2.0, SVG Export Plug-In . SVG Version: 6.00 Build 0)  -->
<svg version="1.1" id="Layer_2" xmlns="http://www.w3.org/2000/svg" xmlns:xlink="http://www.w3.org/1999/xlink" x="0px" y="0px"
	 viewBox="0 0 1080.96 1920" style="enable-background:new 0 0 1080.96 1920;" xml:space="preserve">
<style type="text/css">
	.st0{fill:none;stroke:#646566;stroke-miterlimit:10;}
</style>
<g id="Layer_1">
	<path class="st0" d="M307.17,1268.09h-70.96c-6.63,0-12-5.37-12-12v-94.43c0-6.63,5.37-12,12-12h70.96c6.63,0,12,5.37,12,12v94.43
		C319.17,1262.71,313.8,1268.09,307.17,1268.09z"/>
	<path class="st0" d="M413.65,1268.09H342.7c-6.63,0-12-5.37-12-12v-94.43c0-6.63,5.37-12,12-12h70.96c6.63,0,12,5.37,12,12v94.43
		C425.65,1262.71,420.28,1268.09,413.65,1268.09z"/>
	<path class="st0" d="M522.17,1268.09h-70.96c-6.63,0-12-5.37-12-12v-94.43c0-6.63,5.37-12,12-12h70.96c6.63,0,12,5.37,12,12v94.43
		C534.17,1262.71,528.8,1268.09,522.17,1268.09z"/>
	<path class="st0" d="M629.65,1268.09H558.7c-6.63,0-12-5.37-12-12v-94.43c0-6.63,5.37-12,12-12h70.96c6.63,0,12,5.37,12,12v94.43
		C641.65,1262.71,636.28,1268.09,629.65,1268.09z"/>
	<path class="st0" d="M738.17,1268.09h-70.96c-6.63,0-12-5.37-12-12v-94.43c0-6.63,5.37-12,12-12h70.96c6.63,0,12,5.37,12,12v94.43
		C750.17,1262.71,744.8,1268.09,738.17,1268.09z"/>
	<path class="st0" d="M845.65,1268.09H774.7c-6.63,0-12-5.37-12-12v-94.43c0-6.63,5.37-12,12-12h70.96c6.63,0,12,5.37,12,12v94.43
		C857.65,1262.71,852.28,1268.09,845.65,1268.09z"/>
	<path class="st0" d="M953.13,1268.09h-70.96c-6.63,0-12-5.37-12-12v-94.43c0-6.63,5.37-12,12-12h70.96c6.63,0,12,5.37,12,12v94.43
		C965.13,1262.71,959.76,1268.09,953.13,1268.09z"/>
	<path class="st0" d="M1062.7,1268.09h-70.96c-6.63,0-12-5.37-12-12v-94.43c0-6.63,5.37-12,12-12h70.96c6.63,0,12,5.37,12,12v94.43
		C1074.7,1262.71,1069.32,1268.09,1062.7,1268.09z"/>
	<path class="st0" d="M144.43,1416.26H73.48c-6.63,0-12-5.37-12-12v-94.43c0-6.63,5.37-12,12-12h70.96c6.63,0,12,5.37,12,12v94.43
		C156.43,1410.89,151.06,1416.26,144.43,1416.26z"/>
	<path class="st0" d="M254,1416.26h-70.96c-6.63,0-12-5.37-12-12v-94.43c0-6.63,5.37-12,12-12H254c6.63,0,12,5.37,12,12v94.43
		C266,1410.89,260.63,1416.26,254,1416.26z"/>
	<path class="st0" d="M362.52,1416.26h-70.96c-6.63,0-12-5.37-12-12v-94.43c0-6.63,5.37-12,12-12h70.96c6.63,0,12,5.37,12,12v94.43
		C374.52,1410.89,369.15,1416.26,362.52,1416.26z"/>
	<path class="st0" d="M470,1416.26h-70.96c-6.63,0-12-5.37-12-12v-94.43c0-6.63,5.37-12,12-12H470c6.63,0,12,5.37,12,12v94.43
		C482,1410.89,476.63,1416.26,470,1416.26z"/>
	<path class="st0" d="M576.96,1416.26H506c-6.63,0-12-5.37-12-12v-94.43c0-6.63,5.37-12,12-12h70.96c6.63,0,12,5.37,12,12v94.43
		C588.96,1410.89,583.58,1416.26,576.96,1416.26z"/>
	<path class="st0" d="M684.96,1416.26H614c-6.63,0-12-5.37-12-12v-94.43c0-6.63,5.37-12,12-12h70.96c6.63,0,12,5.37,12,12v94.43
		C696.96,1410.89,691.58,1416.26,684.96,1416.26z"/>
	<path class="st0" d="M793.48,1416.26h-70.96c-6.63,0-12-5.37-12-12v-94.43c0-6.63,5.37-12,12-12h70.96c6.63,0,12,5.37,12,12v94.43
		C805.48,1410.89,800.11,1416.26,793.48,1416.26z"/>
	<path class="st0" d="M900.96,1416.26H830c-6.63,0-12-5.37-12-12v-94.43c0-6.63,5.37-12,12-12h70.96c6.63,0,12,5.37,12,12v94.43
		C912.96,1410.89,907.58,1416.26,900.96,1416.26z"/>
	<path class="st0" d="M1008.43,1416.26h-70.96c-6.63,0-12-5.37-12-12v-94.43c0-6.63,5.37-12,12-12h70.96c6.63,0,12,5.37,12,12v94.43
		C1020.43,1410.89,1015.06,1416.26,1008.43,1416.26z"/>
	<path class="st0" d="M254,1562.61h-70.96c-6.63,0-12-5.37-12-12v-94.43c0-6.63,5.37-12,12-12H254c6.63,0,12,5.37,12,12v94.43
		C266,1557.24,260.63,1562.61,254,1562.61z"/>
	<path class="st0" d="M362.52,1562.61h-70.96c-6.63,0-12-5.37-12-12v-94.43c0-6.63,5.37-12,12-12h70.96c6.63,0,12,5.37,12,12v94.43
		C374.52,1557.24,369.15,1562.61,362.52,1562.61z"/>
	<path class="st0" d="M470,1562.61h-70.96c-6.63,0-12-5.37-12-12v-94.43c0-6.63,5.37-12,12-12H470c6.63,0,12,5.37,12,12v94.43
		C482,1557.24,476.63,1562.61,470,1562.61z"/>
	<path class="st0" d="M575.96,1562.61H505c-6.63,0-12-5.37-12-12v-94.43c0-6.63,5.37-12,12-12h70.96c6.63,0,12,5.37,12,12v94.43
		C587.96,1557.24,582.58,1562.61,575.96,1562.61z"/>
	<path class="st0" d="M684.96,1562.61H614c-6.63,0-12-5.37-12-12v-94.43c0-6.63,5.37-12,12-12h70.96c6.63,0,12,5.37,12,12v94.43
		C696.96,1557.24,691.58,1562.61,684.96,1562.61z"/>
	<path class="st0" d="M793.48,1562.61h-70.96c-6.63,0-12-5.37-12-12v-94.43c0-6.63,5.37-12,12-12h70.96c6.63,0,12,5.37,12,12v94.43
		C805.48,1557.24,800.11,1562.61,793.48,1562.61z"/>
	<path class="st0" d="M900.96,1562.61H830c-6.63,0-12-5.37-12-12v-94.43c0-6.63,5.37-12,12-12h70.96c6.63,0,12,5.37,12,12v94.43
		C912.96,1557.24,907.58,1562.61,900.96,1562.61z"/>
	<path class="st0" d="M793.48,1708.96H291.57c-6.63,0-12-5.37-12-12v-94.43c0-6.63,5.37-12,12-12h501.91c6.63,0,12,5.37,12,12v94.43
		C805.48,1703.58,800.11,1708.96,793.48,1708.96z"/>
	<path class="st0" d="M89.65,1268.09H18.7c-6.63,0-12-5.37-12-12v-94.43c0-6.63,5.37-12,12-12h70.96c6.63,0,12,5.37,12,12v94.43
		C101.65,1262.71,96.28,1268.09,89.65,1268.09z"/>
	<path class="st0" d="M198.7,1268.09h-70.96c-6.63,0-12-5.37-12-12v-94.43c0-6.63,5.37-12,12-12h70.96c6.63,0,12,5.37,12,12v94.43
		C210.7,1262.71,205.32,1268.09,198.7,1268.09z"/>
</g>
</svg>
